<?xml version="1.0" encoding="utf-8"?>
<!-- Svg Vector Icons : http://www.onlinewebfonts.com/icon -->
<!DOCTYPE svg PUBLIC "-//W3C//DTD SVG 1.1//EN" "http://www.w3.org/Graphics/SVG/1.1/DTD/svg11.dtd">
<svg version="1.1" xmlns="http://www.w3.org/2000/svg" xmlns:xlink="http://www.w3.org/1999/xlink" x="0px" y="0px" viewBox="0 0 256 256" enable-background="new 0 0 256 256" xml:space="preserve">
<metadata> Svg Vector Icons : http://www.onlinewebfonts.com/icon </metadata>
<g><g><path fill="#000000" d="M22.6,129.1v68.2h150.8v-68.2H22.6z M71.5,180.3c-2.7,2-6.1,3.1-10.3,3.1c-5.1,0-9.3-1.8-12.6-5.3c-3.3-3.5-4.9-8.3-4.9-14.4c0-6.4,1.7-11.4,5-15c3.3-3.6,7.7-5.3,13.1-5.3c4.7,0,8.5,1.4,11.5,4.2c1.8,1.6,3.1,4,3.9,7.1l-7.7,1.8c-0.5-2-1.4-3.6-2.9-4.7c-1.4-1.2-3.2-1.7-5.3-1.7c-2.9,0-5.2,1-7,3.1c-1.8,2-2.7,5.4-2.7,10c0,4.9,0.9,8.4,2.6,10.4c1.8,2.1,4,3.1,6.8,3.1c2.1,0,3.9-0.7,5.3-2c1.5-1.3,2.6-3.4,3.2-6.2l7.6,2.4C76.1,175.1,74.2,178.3,71.5,180.3z M111.5,177.7c-1.2,1.9-3,3.4-5.2,4.3c-2.2,0.9-5,1.4-8.4,1.4c-4.9,0-8.6-1.1-11.2-3.4c-2.6-2.3-4.2-5.5-4.7-9.8l7.6-0.7c0.5,2.6,1.4,4.4,2.8,5.6c1.4,1.2,3.3,1.8,5.6,1.8c2.5,0,4.4-0.5,5.7-1.6c1.3-1.1,1.9-2.3,1.9-3.7c0-0.9-0.3-1.7-0.8-2.3c-0.5-0.7-1.5-1.2-2.8-1.7c-0.9-0.3-3-0.9-6.2-1.7c-4.2-1-7.1-2.3-8.8-3.8c-2.4-2.1-3.5-4.7-3.5-7.8c0-2,0.6-3.8,1.7-5.5c1.1-1.7,2.7-3,4.8-3.9c2.1-0.9,4.6-1.3,7.6-1.3c4.8,0,8.5,1.1,10.9,3.2c2.5,2.1,3.7,5,3.9,8.5l-7.8,0.3c-0.3-2-1.1-3.4-2.1-4.3c-1.1-0.9-2.7-1.3-4.9-1.3c-2.3,0-4,0.5-5.3,1.4c-0.8,0.6-1.2,1.4-1.2,2.4c0,0.9,0.4,1.7,1.2,2.3c1,0.8,3.4,1.7,7.2,2.6c3.8,0.9,6.6,1.8,8.4,2.8c1.8,1,3.2,2.3,4.3,3.9c1,1.7,1.5,3.7,1.5,6.1C113.3,173.7,112.7,175.8,111.5,177.7z M138,182.7h-8.3l-13.8-38.6h8.5l9.8,28.5l9.4-28.5h8.3L138,182.7z"/><path fill="#000000" d="M167.3,10.1H69.7c-8.3-0.9-14.3,5.4-13.4,13.1l-0.1,79h0.1v27.1h18.4v-27.1V28.4h88.5v55.3h51.6v143.8H74.8v-30.9H56.3l0,35.3c-0.9,7.7,5.1,14,12.5,14H220c7.4,0,13.4-6.3,13.4-14V79.3L167.3,10.1z"/></g></g>
</svg>